<?xml version="1.0" encoding="utf-8" ?>
<svg xmlns="http://www.w3.org/2000/svg" xmlns:xlink="http://www.w3.org/1999/xlink" width="2793" height="1226">
	<path fill="#48C173" transform="scale(2.08173 2.08173)" d="M680.005 188.85C680.735 188.657 681.482 188.389 682.076 187.905C686.768 184.085 691.152 178.484 695.533 174.179C708.421 161.512 721.343 148.927 734.027 136.051L820.547 49.5746Q836.429 33.4824 852.726 17.8096C858.33 12.4061 864.22 5.7266 870.884 1.67986L871.167 2.56318L870.782 1.88461L870.476 4.1408L871.631 4.45765C870.897 5.75033 872.33 31.3688 872.464 36.2628C873.453 72.235 872.893 108.338 872.913 144.327C872.917 152.196 874.296 181.009 871.731 185.966C872.074 186.899 872.384 188.701 873.372 189.035C876.315 190.033 953.397 189.28 962.736 189.283L1214.18 189.3C1256.37 189.307 1298.7 188.613 1340.87 189.385L1341.29 192.023C1340.53 195.838 1330.19 211.999 1327.74 216.675L1288.08 292.332C1280.85 306.313 1238.93 392.27 1232.96 396.28C1186.12 397.463 1139.03 396.456 1092.17 396.452L822.873 396.429L718.643 396.425C700.631 396.422 681.803 395.332 663.871 396.789C660.937 401.748 654.309 406.963 650.141 411.089L617.22 443.493L508.912 552.182C502.905 558.1 481.94 579.844 476.431 583.051C475.326 583.694 474.896 584.032 473.617 583.696C472.452 576.378 473.488 568.248 473.473 560.816C473.446 547.69 473.016 534.558 472.952 521.428L471.838 397.389C448.461 396.327 424.673 397.215 401.251 397.271L274.615 397.377L100.97 397.207C68.2712 397.161 35.461 396.557 2.77538 397.345C4.08839 378.152 3.24607 358.419 3.20314 339.157L2.96997 235.387C2.95882 222.798 0.619747 200.763 3.29096 189.253L497.535 189.288L627.638 189.307L662.173 189.321C667.876 189.318 674.44 189.966 680.005 188.85ZM15.9416 202.418L16.3646 323.414C16.3562 342.988 17.1332 362.98 16.0398 382.5L847.276 382.539L1103.68 382.527L1183.23 382.567C1196.08 382.574 1209.96 383.576 1222.71 382.304C1225.4 380.079 1255.06 325.188 1255.45 321.933C1255.5 321.522 1255.51 321.12 1255.49 320.709C1256.95 319.466 1257.72 318.022 1258.64 316.367C1263.05 308.419 1317.96 204.809 1318.08 203.328C1318.11 202.952 1318.1 202.944 1318.09 202.613C1239.2 201.567 1160.19 202.46 1081.3 202.46L624.962 202.491L216.583 202.448C149.944 202.446 82.4855 201.34 15.9416 202.418ZM856.819 32.4293C825.897 62.5407 796.324 94.0585 765.394 124.158C749.602 139.525 733.695 154.719 718.074 170.269C712.865 175.455 705.688 181.111 701.576 187.066C702.586 188.132 703.168 188.159 704.555 188.496L818.261 188.462C829.589 188.386 846.973 190.045 857.489 188.306C858.152 187.119 858.468 186.053 858.541 184.69C859.941 158.488 858.324 131.781 858.456 105.515L858.817 57.9034C858.821 49.7333 859.307 41.2242 858.204 33.1233C857.705 32.7862 857.417 32.5535 856.819 32.4293ZM485.129 399.605C486.879 419.273 485.749 439.912 485.793 459.688Q485.992 493.95 485.42 528.207C485.342 537.822 485.692 547.497 485.389 557.102C496.284 547.541 505.805 536.964 516.065 526.781C532.041 510.927 548.362 495.273 564.023 479.12C570.96 472.351 642.225 402.075 643.084 399.75C608.462 399.244 573.8 399.559 539.174 399.54L503.732 399.506C497.619 399.495 491.213 399.092 485.129 399.605Z"/>
	<path fill="#F9F8F8" transform="scale(2.08173 2.08173)" d="M680.005 188.85C680.735 188.657 681.482 188.389 682.076 187.905C686.768 184.085 691.152 178.484 695.533 174.179C708.421 161.512 721.343 148.927 734.027 136.051L820.547 49.5746Q836.429 33.4824 852.726 17.8096C858.33 12.4061 864.22 5.7266 870.884 1.67986L871.167 2.56318L870.782 1.88461L870.476 4.1408L871.631 4.45765C870.897 5.75033 872.33 31.3688 872.464 36.2628C873.453 72.235 872.893 108.338 872.913 144.327C872.917 152.196 874.296 181.009 871.731 185.966C871.84 186.555 872.275 187.976 871.952 188.437C871.629 188.896 871.162 189.327 870.782 189.745C868.376 185.56 870.055 174.135 869.991 168.929C869.534 131.471 869.906 93.9536 869.914 56.4896C869.917 40.891 871.006 22.0927 869.802 6.8507C869.716 5.76034 869.316 4.84526 868.776 3.91296C866.922 7.73287 852.31 20.7682 848.578 24.497L784.13 88.7046Q746.802 126.373 708.984 163.55C701.769 170.697 694.853 178.239 687.543 185.262C685.929 186.813 684.27 188.425 682.123 189.181L680.005 188.85Z"/>
	<path fill="#48C173" transform="scale(2.08173 2.08173)" d="M578.361 323.062C580.342 322.954 582.992 322.593 584.888 323.326C586.58 323.98 587.614 325.369 588.378 326.957C589.408 329.095 589.539 334.237 588.602 336.451C588.095 337.649 587.723 337.631 586.576 338.112C583.613 338.168 580.216 338.473 577.311 337.872C576.169 337.636 575.42 336.987 574.857 335.978C573.491 333.533 574.124 329.287 574.817 326.66C575.384 324.512 576.593 324.109 578.361 323.062Z"/>
	<path fill="#48C173" transform="scale(2.08173 2.08173)" d="M1082.85 323.327C1085.99 322.976 1090.21 322.184 1093 324.027C1094.83 325.236 1095.95 327.02 1096.35 329.158C1096.7 331.008 1095.92 335.555 1094.7 337.046C1093.69 338.28 1092.38 338.088 1090.89 338.275C1088.85 338.309 1086.58 338.476 1084.56 338.192C1082.86 337.953 1081.71 336.892 1080.77 335.535C1079.24 333.317 1079.15 331.088 1079.68 328.499C1080.23 325.836 1080.69 324.812 1082.85 323.327Z"/>
	<path fill="#F9F8F8" transform="scale(2.08173 2.08173)" d="M1045.33 300.221C1042.09 300.199 1034.89 301.127 1032.68 298.617C1031.44 297.213 1031.32 295.143 1031.54 293.382C1031.67 292.342 1032.28 291.716 1032.86 290.878C1036.86 288.492 1053.01 289.648 1057.81 290.827C1058.56 291.009 1058.87 291.439 1059.43 291.937C1060.82 295.976 1060.56 333.328 1059.01 336.357C1058.66 337.037 1057.54 337.679 1056.82 337.873C1056.42 337.983 1056 338.044 1055.59 338.106C1056.16 337.516 1056.55 336.951 1056.74 336.136C1057.64 332.315 1057.53 294.197 1055.98 291.814C1050.8 291.097 1041.87 290.255 1036.99 291.74C1035.14 292.3 1034.61 293.104 1033.76 294.749C1033.95 296.487 1034 296.617 1035.18 297.905C1038.9 299.456 1043.98 298.805 1048.02 298.908C1048.18 299.121 1048.25 299.21 1048.39 299.462C1050.42 303.11 1049.61 316.309 1048.6 320.524C1047.73 324.161 1046.12 327.356 1042.8 329.31C1038.09 332.09 1031.76 330.993 1026.76 329.627L1028.55 328.998C1032.88 329.666 1036.68 330.125 1040.45 327.344C1044.24 324.547 1045.87 320.329 1046.5 315.783C1046.95 312.458 1047.32 302.909 1045.33 300.221Z"/>
	<path fill="#F9F8F8" transform="scale(2.08173 2.08173)" d="M1051.64 337.625C1050.67 336.688 1049.77 335.361 1048.25 335.654C1046.8 335.935 1044.42 337.709 1042.9 338.352C1037.01 340.857 1030.22 341.174 1024.02 339.683C1019.19 338.521 1014.83 336.083 1012.24 331.717C1010.66 329.064 1009.92 326.062 1009.6 323.015C1008.67 313.998 1009.55 304.285 1009.6 295.198C1009.66 282.24 1007.67 264.686 1010.71 252.494C1011.94 247.586 1014.87 243.853 1019.25 241.321C1026.2 237.309 1036.98 236.516 1044.67 238.598C1050.14 240.075 1054.77 243.498 1057.49 248.491C1060.79 254.544 1061.93 271.041 1060.04 277.401C1058.5 278.86 1058.04 278.756 1056 279.039C1056.07 278.932 1056.14 278.828 1056.2 278.718C1058.28 274.979 1057.18 257.542 1055.76 253.211C1054.19 248.43 1050.92 244.637 1046.38 242.455C1039.78 239.287 1030.45 239.312 1023.63 241.876C1019.04 243.602 1015.59 246.986 1013.64 251.478C1012.52 254.07 1011.91 256.916 1011.65 259.723C1010.8 268.766 1011.58 278.456 1011.57 287.579C1011.56 298.815 1010.8 310.613 1011.69 321.797C1011.85 323.863 1012.35 325.85 1013.11 327.777C1014.92 332.364 1018.42 335.692 1022.95 337.57C1028.24 339.762 1034.99 340.407 1040.32 338.102C1042.77 337.043 1047.46 333.365 1048.64 330.965C1048.69 330.869 1048.72 330.765 1048.75 330.665C1050.32 332.042 1052.32 333.824 1052.4 336.078C1052.43 336.828 1052.08 337.062 1051.64 337.625Z"/>
	<path fill="#48C173" transform="scale(2.08173 2.08173)" d="M383.318 246.333C384.836 246.352 386.919 246.197 388.339 246.681C389.085 246.936 389.55 247.036 389.892 247.753C391.552 251.229 391.601 333.726 390.304 337.034C389.881 338.115 389.102 338.134 388.074 338.558C385.242 338.192 382.309 338.215 379.454 338.106C379.116 325.14 377.062 254.718 379.324 249.004C379.92 247.499 381.959 246.979 383.318 246.333Z"/>
	<path fill="#48C173" transform="scale(2.08173 2.08173)" d="M255.571 241.283C258.507 240.885 261.98 240.336 264.758 241.544C265.041 241.912 265.589 242.448 265.765 242.854C267.587 247.059 265.16 315.948 266.103 328.009C272.508 329.134 285.047 326.812 290.196 330.417C291.151 331.086 291.715 332.022 291.76 333.179C291.831 335.032 290.494 336.901 289.303 338.196C277.431 337.898 265.527 338.104 253.65 338.141C252.462 328.582 252.909 318.597 252.869 308.973Q252.761 284.818 252.901 260.664C252.936 255.425 251.806 244.998 255.571 241.283Z"/>
	<path fill="#48C173" transform="scale(2.08173 2.08173)" d="M774.792 246.671Q775.371 246.554 775.955 246.467C778.283 246.125 780.913 245.826 782.868 247.382C788.279 251.688 784.963 269.656 785.596 276.462C785.913 279.875 787.339 283.379 790.085 285.546C792.712 287.621 796.352 288.315 799.626 287.893C819.124 285.379 805.6 255.145 811.7 247.492C813.517 246.149 815.448 245.966 817.668 246.115C819.403 246.231 820.294 246.412 821.467 247.684C822.84 255.802 822.292 278.499 820.436 286.273C819.536 290.04 818.044 292.323 814.744 294.351C814.631 294.611 814.643 294.629 814.47 294.853C812.573 297.313 806.458 297.951 803.521 298.52C805.449 303.089 804.683 328.139 804.003 334.153C803.774 336.175 803.76 337.095 802.133 338.38C799.811 338.93 797.123 339.179 794.81 338.432C793.698 338.072 792.808 337.585 792.399 336.424C789.993 329.588 794.54 305.242 791.169 299.149C791.109 299.041 791.039 298.937 790.974 298.831C786.459 297.611 781.997 297.289 778.352 293.983C774.005 290.04 773.008 282.269 772.783 276.665C772.57 271.361 771.698 250.047 774.792 246.671Z"/>
	<path fill="#48C173" transform="scale(2.08173 2.08173)" d="M515.821 240.466C526.101 240.341 540.405 239.076 550.318 240.632C552.366 240.953 554.333 241.394 555.631 243.128C555.859 245.264 555.787 247.023 555.42 249.14C552.707 251.491 530.752 250.317 525.719 250.349C525.523 261.398 525.116 272.705 526.333 283.7C528.021 283.729 529.704 283.665 531.391 283.619C536.096 283.491 545.163 282.314 548.653 286.027C549.818 287.266 550.123 288.887 549.987 290.525C549.355 298.154 531.552 290.359 526.789 294.537C525.575 295.603 525.964 315.391 525.756 318.586C525.766 321.751 526.045 324.972 526.204 328.136C535.007 329.583 544.668 327.042 553.185 329.273C555.541 329.89 556.953 330.716 558.186 332.836C558.155 334.433 558.2 335.126 557.02 336.357C556.152 337.262 554.873 337.797 553.651 337.981C545.752 339.173 523.758 338.033 514.582 338.027C513.377 330.431 514.038 322.575 513.853 314.907C513.34 293.657 513.411 272.458 513.458 251.2C513.468 247.093 512.745 243.529 515.821 240.466Z"/>
	<path fill="#48C173" transform="scale(2.08173 2.08173)" d="M1048.75 330.665C1048.72 330.765 1048.69 330.869 1048.64 330.965C1047.46 333.365 1042.77 337.043 1040.32 338.102C1034.99 340.407 1028.24 339.762 1022.95 337.57C1018.42 335.692 1014.92 332.364 1013.11 327.777C1012.35 325.85 1011.85 323.863 1011.69 321.797C1010.8 310.613 1011.56 298.815 1011.57 287.579C1011.58 278.456 1010.8 268.766 1011.65 259.723C1011.91 256.916 1012.52 254.07 1013.64 251.478C1015.59 246.986 1019.04 243.602 1023.63 241.876C1030.45 239.312 1039.78 239.287 1046.38 242.455C1050.92 244.637 1054.19 248.43 1055.76 253.211C1057.18 257.542 1058.28 274.979 1056.2 278.718C1056.14 278.828 1056.07 278.932 1056 279.039C1053.25 279.46 1050.45 279.178 1047.78 278.471C1047.73 278.326 1047.68 278.182 1047.64 278.037C1045.46 270.792 1048.98 254.594 1040.8 250.489C1037.86 249.016 1032.77 250.461 1029.91 251.566C1026.51 252.881 1025.08 255.654 1022.24 257.323C1022.98 260.359 1023.18 320.694 1022.21 322.931C1024.53 324.756 1026.5 326.888 1028.55 328.998L1026.76 329.627C1031.76 330.993 1038.09 332.09 1042.8 329.31C1046.12 327.356 1047.73 324.161 1048.6 320.524C1049.61 316.309 1050.42 303.11 1048.39 299.462C1048.25 299.21 1048.18 299.121 1048.02 298.908C1043.98 298.805 1038.9 299.456 1035.18 297.905C1034 296.617 1033.95 296.487 1033.76 294.749C1034.61 293.104 1035.14 292.3 1036.99 291.74C1041.87 290.255 1050.8 291.097 1055.98 291.814C1057.53 294.197 1057.64 332.315 1056.74 336.136C1056.55 336.951 1056.16 337.516 1055.59 338.106C1054.37 338.519 1052.89 337.904 1051.64 337.625C1052.08 337.062 1052.43 336.828 1052.4 336.078C1052.32 333.824 1050.32 332.042 1048.75 330.665Z"/>
	<path fill="#F9F8F8" transform="scale(2.08173 2.08173)" d="M1026.76 329.627C1025.98 329.411 1025.29 329.07 1024.59 328.657C1022.32 327.305 1021.08 324.955 1020.45 322.445C1018.74 315.59 1018.8 259.086 1021.86 254.23C1023.49 251.647 1025.62 250.172 1028.6 249.532C1032.66 248.66 1040.6 248.654 1044.07 251.093C1047.1 253.225 1048.08 257.48 1048.64 260.941C1049.27 264.813 1050.24 275.321 1047.98 278.234C1047.92 278.317 1047.85 278.392 1047.78 278.471C1047.73 278.326 1047.68 278.182 1047.64 278.037C1045.46 270.792 1048.98 254.594 1040.8 250.489C1037.86 249.016 1032.77 250.461 1029.91 251.566C1026.51 252.881 1025.08 255.654 1022.24 257.323C1022.98 260.359 1023.18 320.694 1022.21 322.931C1024.53 324.756 1026.5 326.888 1028.55 328.998L1026.76 329.627Z"/>
	<path fill="#48C173" transform="scale(2.08173 2.08173)" d="M315.999 317.221C316.577 321.111 316.903 324.564 320.339 327.067C323.377 329.28 327.21 329.278 330.769 328.662C333.304 328.223 336.667 327.81 338.236 325.604C342.852 319.111 341.303 276.024 341.174 266.528C341.112 261.903 339.878 252.93 341.706 248.735C342.227 247.539 344.171 246.821 345.359 246.58C347.479 246.151 349.568 246.72 351.537 247.472C352.833 249.233 352.916 250.926 353.048 253.082C354.178 271.557 353.236 290.666 353.254 309.204C353.261 315.881 354.233 328.93 353.302 334.875C353.117 336.057 352.766 336.947 351.973 337.864C350.371 338.617 349.174 338.422 347.493 338.202C345.459 337.065 344.209 335.562 342.742 333.78C340.193 335.21 337.989 337.466 335.388 338.687C330.589 340.94 322.132 340.111 317.138 338.683C313.468 337.633 309.293 335.699 307.126 332.402C304.492 328.509 303.469 324.724 303.297 320.068C302.808 306.866 303.255 293.483 303.245 280.262C303.239 271.137 302.558 261.412 303.35 252.342C303.481 250.836 303.537 249.212 304.687 248.127C306.056 246.836 308.436 246.582 310.226 246.573C312.145 246.562 313.93 246.894 315.303 248.313C316.678 249.733 315.978 311.199 315.999 317.221Z"/>
	<path fill="#48C173" transform="scale(2.08173 2.08173)" d="M435.462 244.618C441.332 243.635 449.872 245.098 454.814 248.429C459.999 251.923 462.531 257.387 463.688 263.346C464.384 266.934 465.272 272.131 463.008 275.287C462.249 276.346 461.286 276.852 459.991 277.011C457.129 277.363 453.984 277.576 451.639 275.696C449.362 272.493 449.961 267.054 449.857 263.255C448.954 261.798 448.037 260.258 446.822 259.038C444.833 257.041 442.492 256.175 439.69 256.188C435.924 256.204 431.686 257.212 429.012 260.04C426.918 262.254 425.573 265.57 425.73 268.625C426.282 279.345 445.145 288.052 452.546 294.552C458.365 299.662 463.169 305.847 463.597 313.923C463.997 321.493 463.309 329.045 457.908 334.826C453.461 339.585 447.882 339.861 441.818 340.046C434.639 340.027 427.672 340.548 421.404 336.241C416.882 333.135 414.321 328.292 413.404 322.96C412.773 319.292 411.718 310.736 414.05 307.655C414.959 306.455 418.109 306.055 419.511 305.949C427.405 305.354 424.534 322.387 430.397 327.328C432.926 329.459 436.381 329.899 439.574 329.635C442.703 329.376 446.221 328.416 448.25 325.841C450.343 323.185 450.385 317.567 449.902 314.329C448.577 305.455 436.655 298.415 430.002 293.402C422.429 287.694 414.501 281.478 413.198 271.393C412.424 265.397 413.699 257.058 417.5 252.269C421.938 246.678 428.792 245.358 435.462 244.618Z"/>
	<path fill="#48C173" transform="scale(2.08173 2.08173)" d="M933.929 244.051C937.933 243.73 942.62 243.875 946.48 245.041C952.043 246.721 956.505 250.17 959.183 255.373C961.852 260.559 963.421 270.497 961.674 276.118C960.919 276.956 960.253 277.513 959.16 277.809C956.81 278.445 953.435 278.567 951.285 277.254C947.14 274.723 947.957 267.231 946.651 263.006C945.904 260.589 944.363 258.421 942.046 257.311C938.961 255.834 934.329 255.934 931.175 257.129C922.504 260.413 926.565 265.553 923.752 271.651C926.45 273.622 927.971 277.336 930.628 279.569C938.022 285.784 946.702 290.324 953.505 297.317C959.103 303.07 962.014 309.906 961.859 317.945C961.739 324.108 959.903 331.166 955.276 335.485C949.651 340.734 942.044 340.395 934.911 340.131C929.309 340.192 922.96 339.984 918.372 336.302C913.485 332.379 911.568 325.108 911.028 319.098C910.725 315.733 910.436 310.657 912.903 308.011C914.088 306.739 915.605 306.189 917.311 306.196C929.792 306.249 921.837 320.795 928.182 326.579C930.305 328.514 934.877 329.033 937.602 328.857C940.513 328.67 943.179 327.594 945.082 325.331C947.364 322.616 948.726 318.562 948.333 315.021C947.201 304.82 931.176 296.226 923.88 290.376C917.323 285.118 911.347 279.048 910.467 270.228C909.861 264.157 911.253 256.095 915.265 251.397C920.067 245.774 927.01 244.679 933.929 244.051Z"/>
	<path fill="#48C173" transform="scale(2.08173 2.08173)" d="M723.19 244.705C728.075 243.961 733.929 243.903 738.758 245.075C744.167 246.388 748.851 249.469 751.691 254.319C756.52 262.566 756.22 282.707 753.876 292.032C751.462 294.441 722.175 292.849 716.455 293.316C719.867 298.873 713.993 318.107 720.354 325.506C722.744 328.286 727.931 330.301 731.535 330.449C743.811 330.954 740.322 314.918 744.89 310.928C744.978 310.851 745.073 310.781 745.164 310.708C747.27 310.474 750.548 309.889 752.486 310.869C753.744 311.505 754.514 312.838 754.939 314.165C756.378 318.653 754.61 325.384 752.4 329.439C749.765 334.273 745.306 337.594 740.048 339.103C732.733 341.203 721.314 340.748 714.681 336.924C710.751 334.658 707.504 330.598 706.434 326.158C704.394 317.697 704.146 273.594 705.122 264.177C705.537 260.169 706.466 254.967 708.657 251.553C711.586 246.99 718.277 245.776 723.19 244.705ZM726.759 256.499C722.964 258.029 719.578 259.464 717.829 263.479C715.277 269.338 719.11 278.477 715.754 283.59L731.121 283.741L741.287 283.807C743.593 279.634 743.174 269.047 741.857 264.599C740.979 261.632 738.965 258.784 736.22 257.273C733.402 255.722 729.832 256.154 726.759 256.499Z"/>
	<path fill="#48C173" transform="scale(2.08173 2.08173)" d="M858.561 244.706C865.522 243.564 875.235 243.87 881.682 247.057C885.939 249.16 888.14 253.248 889.642 257.587C891.68 263.472 893.286 286.981 890.702 292.272C885.177 295.012 859.793 292.871 851.913 293.133C855.587 297.67 850.929 316.395 854.881 323.704C856.186 326.118 858.305 327.61 860.914 328.375C864.875 329.537 870.074 329.474 873.724 327.374C879.219 324.213 876.747 318.304 878.345 313.387C878.843 311.852 879.64 311.611 880.959 310.879C882.957 310.608 885.257 310.463 887.276 310.618C889.132 310.761 889.849 311.165 891.068 312.517C892.486 317.459 890.944 325.588 888.628 330.022C886.286 334.508 882.305 337.536 877.48 338.957C870.091 341.134 857.173 341.399 850.341 337.539C845.971 335.071 843.078 330.893 841.747 326.103C838.975 316.123 841.101 295.116 841.153 284.154C841.185 277.308 840.462 270.189 841.154 263.383C841.474 260.235 842.242 257.171 843.821 254.407C847.13 248.615 852.505 246.438 858.561 244.706ZM861.822 257.155C858.963 258.654 856.298 260.272 853.629 262.086C854.164 264.572 853.588 281.546 852.851 284.089C857.944 283.708 862.972 283.657 868.073 283.691L877.474 283.558C879.586 279.533 879.399 270.111 878.091 265.861C877.055 262.495 874.888 259.522 871.72 257.878C868.508 256.211 865.247 256.711 861.822 257.155Z"/>
	<path fill="#48C173" transform="scale(2.08173 2.08173)" d="M641.361 240.771C649.496 239.466 667.239 239.103 674.752 242.437C679.082 244.358 682.329 247.855 684.018 252.269C687.054 260.2 686.376 286.237 682.7 293.932C680.199 299.169 676.053 300.775 670.937 302.598C671.541 303.041 672.094 303.519 672.528 304.134C676.211 309.354 688.656 332.577 687.619 337.996C684.041 338.485 680.211 338.156 676.597 338.074C676.622 337.703 676.618 337.345 676.574 336.974C676.325 334.894 673.734 331.205 672.151 329.898C672.202 329.497 672.235 329.417 672.164 328.958C671.523 324.782 662.157 306.336 658.995 303.567C656.272 303.204 653.326 303.387 650.572 303.352C650.617 303.529 650.665 303.705 650.708 303.882C651.802 308.389 652.34 334.677 650.421 337.825C646.822 338.438 642.943 338.172 639.291 338.156C641.167 334.478 640.059 321.989 640.05 317.434L640.013 271.665C639.949 262.661 639.16 253.043 640.102 244.121C640.241 242.805 640.548 241.824 641.361 240.771ZM650.341 250.599C651.795 253.088 652.154 288.529 651.186 292.184C651.038 292.74 650.766 293.25 650.46 293.732C656.073 293.919 663.576 294.95 668.719 292.494C669.201 291.943 669.797 291.416 669.946 290.677C671.979 289.141 672.271 287.004 672.603 284.606C673.675 276.859 674.955 259.914 670.135 253.564C668.491 251.399 665.191 250.67 662.64 250.385C658.714 249.948 654.238 249.946 650.341 250.599Z"/>
</svg>
